<svg width="24" height="24" xmlns="http://www.w3.org/2000/svg">

 <g>
  <title>background</title>
  <rect fill="none" id="canvas_background" height="402" width="582" y="-1" x="-1"/>
 </g>
 <g>
  <title>Layer 1</title>
  <path id="svg_1" d="m264,66l33,0l0,99l-33,0l0,-99z"/>
  <path id="svg_2" d="m457.166,103.834l-99,-99c-3.094,-3.094 -7.283,-4.834 -11.666,-4.834l-330,0c-9.12,0 -16.5,7.38 -16.5,16.5l0,429c0,9.12 7.38,16.5 16.5,16.5l429,0c9.12,0 16.5,-7.38 16.5,-16.5l0,-330c0,-4.383 -1.741,-8.572 -4.834,-11.666zm-325.166,-70.834l198,0l0,165l-198,0l0,-165zm297,396l-396,0l0,-396l66,0l0,181.5c0,9.12 7.38,16.5 16.5,16.5l231,0c9.12,0 16.5,-7.38 16.5,-16.5l0,-158.168l66,66l0,306.668z"/>
  <text font-style="italic" xml:space="preserve" text-anchor="start" font-family="'Simonetta', serif" font-size="24" id="svg_3" y="281.4375" x="66" stroke-width="0" stroke="#000" fill="#000000">Sinclair Liang</text>
 </g>
</svg>